<svg width="386" height="115" viewBox="0 0 386 115" fill="none" xmlns="http://www.w3.org/2000/svg">
<path d="M131.888 93.344C130.096 93.344 128.24 92.96 126.32 92.192C124.4 91.488 122.992 90.336 122.096 88.736C120.24 87.904 118.896 86.592 118.064 84.8C117.296 82.944 116.976 80.896 117.104 78.656C117.616 70.912 118.032 63.168 118.352 55.424C118.672 47.68 119.28 39.936 120.176 32.192C118.896 31.04 117.744 29.792 116.72 28.448C115.76 27.04 115.28 25.856 115.28 24.896C115.28 23.872 115.888 23.36 117.104 23.36C118 23.36 119.472 23.296 121.52 23.168C123.568 22.976 125.808 22.784 128.24 22.592C130.672 22.336 133.008 22.144 135.248 22.016C137.488 21.824 139.248 21.728 140.528 21.728C144.24 21.728 147.248 22.24 149.552 23.264C151.92 24.288 153.648 25.6 154.736 27.2C155.888 28.736 156.464 30.368 156.464 32.096C156.464 32.736 156.144 33.056 155.504 33.056C154.928 33.056 154.384 33.056 153.872 33.056C153.36 32.992 152.848 32.96 152.336 32.96C149.456 32.96 146.448 33.12 143.312 33.44C140.176 33.76 137.264 34.112 134.576 34.496C134 39.552 133.52 44.736 133.136 50.048C136.144 49.664 138.768 49.472 141.008 49.472C141.968 49.472 143.088 49.76 144.368 50.336C145.712 50.848 146.992 51.52 148.208 52.352C149.424 53.184 150.448 54.08 151.28 55.04C152.112 55.936 152.528 56.768 152.528 57.536C152.528 58.688 152.24 59.424 151.664 59.744C151.088 60.064 150.192 60.224 148.976 60.224C147.824 60.224 146.288 60.352 144.368 60.608C142.512 60.864 140.496 61.152 138.32 61.472C136.208 61.728 134.224 61.92 132.368 62.048C132.176 65.12 132.016 68.224 131.888 71.36C131.76 74.432 131.664 77.504 131.6 80.576C134.224 78.848 136.752 77.472 139.184 76.448C141.616 75.36 143.792 74.816 145.712 74.816C146.992 74.816 148.432 75.2 150.032 75.968C151.632 76.736 153.04 77.696 154.256 78.848C155.472 79.936 156.08 80.96 156.08 81.92C156.08 82.752 155.696 83.328 154.928 83.648L131.888 93.344ZM199.673 93.344C195.385 93.344 192.409 92.096 190.745 89.6C189.145 87.104 188.345 83.904 188.345 80C188.345 76.992 188.729 73.696 189.497 70.112C190.265 66.464 191.161 62.784 192.185 59.072H191.993C188.793 64.256 185.817 69.696 183.065 75.392C180.313 81.024 177.753 86.912 175.385 93.056C171.929 93.056 169.241 91.872 167.321 89.504C165.337 88.608 163.865 87.296 162.905 85.568C162.009 83.776 161.561 81.888 161.561 79.904C161.561 74.016 161.913 67.52 162.617 60.416C163.321 53.312 164.505 45.92 166.169 38.24C166.361 37.024 167.033 36.416 168.185 36.416C169.913 36.416 171.545 36.832 173.081 37.664C174.617 38.432 175.865 39.552 176.825 41.024C177.785 42.496 178.265 44.224 178.265 46.208C178.265 46.528 178.265 46.88 178.265 47.264C178.265 47.648 178.201 48.032 178.073 48.416L173.273 73.184H173.465C175.065 69.536 176.665 65.92 178.265 62.336C179.929 58.688 181.593 55.392 183.257 52.448C184.985 49.44 186.777 47.04 188.633 45.248C190.489 43.392 192.409 42.464 194.393 42.464C195.993 42.464 197.689 43.296 199.481 44.96C201.273 45.472 202.617 46.336 203.513 47.552C204.473 48.704 204.953 49.984 204.953 51.392C204.953 51.584 204.953 51.776 204.953 51.968C204.953 52.16 204.921 52.352 204.857 52.544C204.601 53.952 204.313 55.936 203.993 58.496C203.673 60.992 203.353 63.84 203.033 67.04C202.777 70.176 202.553 73.472 202.361 76.928C202.169 80.32 202.073 83.616 202.073 86.816C202.073 87.84 202.105 88.864 202.169 89.888C202.297 90.912 202.425 91.872 202.553 92.768C201.593 93.152 200.633 93.344 199.673 93.344ZM228.118 93.44C226.71 93.44 225.014 92.992 223.03 92.096C221.11 91.264 219.67 89.76 218.71 87.584C217.046 86.56 215.798 85.184 214.966 83.456C214.134 81.664 213.718 79.584 213.718 77.216C213.718 75.68 213.75 73.44 213.814 70.496C213.878 67.552 213.974 64.16 214.102 60.32C214.294 56.48 214.55 52.448 214.87 48.224C213.142 47.456 211.574 46.336 210.166 44.864C208.822 43.328 208.149 42.08 208.149 41.12C208.149 40.352 208.277 39.744 208.534 39.296C208.854 38.848 209.43 38.592 210.262 38.528C212.054 38.272 213.91 38.048 215.83 37.856C216.086 35.808 216.342 33.824 216.598 31.904C216.854 29.984 217.142 28.096 217.462 26.24C217.654 25.216 217.942 24.544 218.326 24.224C218.71 23.84 219.254 23.648 219.958 23.648C221.878 23.648 223.734 24.128 225.526 25.088C227.382 26.048 228.886 27.136 230.038 28.352C231.254 29.568 231.798 30.56 231.67 31.328C231.35 33.248 231.094 35.04 230.902 36.704C231.798 36.704 232.63 36.704 233.398 36.704C234.358 36.704 235.478 36.992 236.758 37.568C238.102 38.08 239.382 38.752 240.598 39.584C241.814 40.416 242.838 41.312 243.67 42.272C244.502 43.168 244.918 44 244.918 44.768C244.918 45.92 244.63 46.656 244.054 46.976C243.478 47.296 242.582 47.456 241.366 47.456C240.278 47.456 238.614 47.552 236.374 47.744C234.134 47.872 231.766 48.032 229.27 48.224C228.566 53.664 227.926 59.072 227.35 64.448C226.838 69.824 226.486 75.232 226.294 80.672C228.726 79.968 230.678 79.008 232.15 77.792C233.622 76.512 234.806 75.328 235.702 74.24C236.662 73.088 237.558 72.352 238.39 72.032C238.774 71.84 239.19 71.744 239.638 71.744C240.79 71.744 241.75 72.32 242.518 73.472C243.35 74.624 243.766 76.064 243.766 77.792C243.766 79.712 243.19 81.6 242.038 83.456C240.95 85.312 239.542 87.008 237.814 88.544C236.086 90.016 234.358 91.2 232.63 92.096C230.902 92.992 229.398 93.44 228.118 93.44ZM261.816 93.92C259.96 93.92 258.072 93.408 256.152 92.384C254.232 91.36 252.568 89.984 251.16 88.256C249.816 86.464 249.048 84.448 248.856 82.208C248.664 80.16 248.504 77.696 248.376 74.816C248.248 71.936 248.184 68.832 248.184 65.504C248.184 60.832 248.344 55.968 248.664 50.912C249.048 45.856 249.72 41.088 250.68 36.608C251 35.264 251.544 34.592 252.312 34.592C253.912 34.592 255.608 35.008 257.4 35.84C259.256 36.672 260.824 37.728 262.104 39.008C263.384 40.224 264.024 41.472 264.024 42.752C264.024 43.456 263.96 44.448 263.832 45.728C263.704 46.944 263.608 48.768 263.544 51.2H263.736C264.12 49.152 264.856 46.976 265.944 44.672C267.096 42.304 268.536 40.288 270.264 38.624C271.992 36.896 273.944 36.032 276.12 36.032C277.656 37.824 278.872 40.16 279.768 43.04C280.664 45.92 281.144 48.8 281.208 51.68C277.88 52.448 274.936 53.632 272.376 55.232C269.88 56.768 267.352 58.88 264.792 61.568C263.96 64.896 263.32 68.448 262.872 72.224C262.488 75.936 262.2 79.456 262.008 82.784C261.88 86.048 261.816 88.736 261.816 90.848C261.816 92.896 261.816 93.92 261.816 93.92ZM296.271 93.344C294.607 93.344 292.847 93.024 290.991 92.384C289.199 91.744 287.663 90.816 286.383 89.6C285.167 88.384 284.559 86.912 284.559 85.184C284.559 84.16 284.623 82.336 284.751 79.712C284.879 77.088 285.039 74.048 285.231 70.592C285.423 67.072 285.647 63.456 285.903 59.744C286.159 55.968 286.447 52.384 286.767 48.992C287.087 45.6 287.375 42.72 287.631 40.352C287.695 39.84 288.015 39.52 288.591 39.392C289.167 39.2 289.647 39.104 290.031 39.104C291.503 39.104 293.135 39.52 294.927 40.352C296.719 41.184 298.255 42.24 299.535 43.52C300.879 44.8 301.551 46.144 301.551 47.552C301.551 48.384 301.423 50.048 301.167 52.544C300.911 54.976 300.591 57.888 300.207 61.28C299.887 64.672 299.535 68.224 299.151 71.936C298.831 75.648 298.543 79.264 298.287 82.784C298.031 86.24 297.903 89.248 297.903 91.808C297.903 92.128 297.775 92.448 297.519 92.768C297.263 93.152 296.847 93.344 296.271 93.344ZM297.615 29.6C295.503 29.6 293.551 29.376 291.759 28.928C290.031 28.416 288.655 27.52 287.631 26.24C286.671 24.96 286.255 23.136 286.383 20.768C286.511 19.552 286.671 18.24 286.863 16.832C287.119 15.36 287.951 14.464 289.359 14.144C290.127 14.016 291.055 13.92 292.143 13.856C293.231 13.792 294.191 13.76 295.023 13.76C296.815 13.76 298.799 14.048 300.975 14.624C302.063 14.88 302.607 15.296 302.607 15.872C302.607 17.344 302.383 19.072 301.935 21.056C301.487 23.04 301.007 25.76 300.495 29.216C299.471 29.472 298.511 29.6 297.615 29.6ZM323.416 93.344C321.752 93.344 319.992 92.992 318.136 92.288C316.28 91.584 314.712 90.432 313.432 88.832C312.152 87.168 311.544 84.896 311.608 82.016C311.736 78.048 311.832 73.6 311.896 68.672C311.96 63.68 312.216 58.624 312.664 53.504C311 52.672 309.496 51.52 308.152 50.048C306.872 48.576 306.232 47.392 306.232 46.496C306.232 45.728 306.36 45.152 306.616 44.768C306.936 44.32 307.512 44.032 308.344 43.904C310.328 43.52 312.184 43.2 313.912 42.944C314.808 36.992 315.928 32.224 317.272 28.64C318.68 24.992 320.44 22.368 322.552 20.768C324.728 19.168 327.448 18.368 330.712 18.368C333.912 18.368 336.664 19.04 338.968 20.384C341.272 21.728 343.032 23.328 344.248 25.184C345.528 27.04 346.168 28.8 346.168 30.464C346.168 31.36 345.912 32.128 345.4 32.768C344.888 33.344 344.088 33.632 343 33.632C340.632 33.632 338.744 33.376 337.336 32.864C335.928 32.352 334.808 31.872 333.976 31.424C333.144 30.912 332.344 30.656 331.576 30.656C330.616 30.656 329.88 31.488 329.368 33.152C328.856 34.816 328.376 37.6 327.928 41.504C328.184 41.504 328.44 41.504 328.696 41.504C329.656 41.504 330.776 41.792 332.056 42.368C333.4 42.88 334.68 43.552 335.896 44.384C337.112 45.216 338.136 46.112 338.968 47.072C339.8 47.968 340.216 48.8 340.216 49.568C340.216 50.72 339.928 51.456 339.352 51.776C338.776 52.096 337.88 52.256 336.664 52.256C335.64 52.256 334.232 52.384 332.44 52.64C330.648 52.832 328.76 53.024 326.776 53.216C326.776 53.664 326.744 54.08 326.68 54.464C326.68 54.848 326.648 55.264 326.584 55.712C326.2 60.192 325.912 65.44 325.72 71.456C325.592 77.408 325.368 84.192 325.048 91.808C325.048 92.128 324.92 92.448 324.664 92.768C324.408 93.152 323.992 93.344 323.416 93.344ZM352.54 110.24C349.852 110.24 347.9 109.824 346.684 108.992C345.468 108.224 344.7 107.392 344.38 106.496C344.06 105.664 343.9 105.184 343.9 105.056C343.9 104.48 344.06 104.064 344.38 103.808C344.7 103.616 345.02 103.456 345.34 103.328C345.852 103.072 346.716 102.496 347.932 101.6C349.212 100.704 350.556 99.296 351.964 97.376C353.372 95.52 354.556 93.056 355.516 89.984C353.404 88.768 351.676 87.008 350.332 84.704C349.052 82.4 348.156 80.032 347.644 77.6C347.324 76 346.972 73.888 346.588 71.264C346.204 68.64 345.788 65.76 345.34 62.624C344.956 59.488 344.572 56.384 344.188 53.312C343.804 50.24 343.452 47.424 343.132 44.864C342.876 42.24 342.652 40.16 342.46 38.624C342.268 37.024 342.172 36.224 342.172 36.224C342.492 35.456 343.644 35.072 345.628 35.072C347.1 35.072 348.828 35.616 350.812 36.704C352.796 37.792 354.556 39.232 356.092 41.024C357.628 42.752 358.46 44.672 358.588 46.784C358.652 47.552 358.812 49.44 359.068 52.448C359.324 55.456 359.612 59.04 359.932 63.2C360.252 67.36 360.572 71.616 360.892 75.968H361.18L371.452 36.704C371.644 35.936 372.7 35.552 374.62 35.552C376.028 35.552 377.564 35.904 379.228 36.608C380.956 37.312 382.428 38.304 383.644 39.584C384.924 40.864 385.564 42.368 385.564 44.096C385.564 44.352 385.564 44.64 385.564 44.96C385.564 45.28 385.5 45.6 385.372 45.92C385.308 46.176 384.988 47.2 384.412 48.992C383.836 50.784 383.036 53.12 382.012 56C381.052 58.816 379.932 61.984 378.652 65.504C377.436 68.96 376.156 72.576 374.812 76.352C373.468 80.064 372.156 83.712 370.876 87.296C369.404 91.392 367.74 95.168 365.884 98.624C364.092 102.144 362.076 104.96 359.836 107.072C357.66 109.184 355.228 110.24 352.54 110.24Z" fill="url(#paint0_linear_2_21)"/>
<path d="M19.6242 38.5451L64.8603 81.3855C68.4792 84.8128 74.6445 84.6451 78.0717 81.0262L103.776 53.8845C105.061 52.5274 106.823 52.4795 108.18 53.7647C109.537 55.0499 109.585 56.8115 108.3 58.1686L82.5954 85.3102C76.5977 91.6433 66.9093 91.9068 60.5762 85.9091L15.3401 43.0687L19.6242 38.5451Z" fill="url(#paint1_linear_2_21)" stroke="url(#paint2_linear_2_21)" stroke-width="2.6"/>
<path d="M16.0588 69.4917C15.6064 69.0633 14.7017 68.2065 14.6778 67.3257L13.9591 40.9027C13.9111 39.1412 15.1964 37.7841 16.9579 37.7362L43.3808 37.0175C45.1424 36.9696 46.4995 38.2548 46.5474 40.0163C46.5953 41.7779 45.3101 43.1349 43.5485 43.1829L20.6486 43.8057L21.2715 66.7056C21.3194 68.4672 20.0342 69.8242 18.2727 69.8722C17.4159 70.7769 16.5112 69.9201 16.0588 69.4917Z" fill="url(#paint3_linear_2_21)" stroke="url(#paint4_linear_2_21)" stroke-width="2.6"/>
<defs>
<linearGradient id="paint0_linear_2_21" x1="376" y1="79" x2="20" y2="73" gradientUnits="userSpaceOnUse">
<stop/>
<stop stop-color="#2F2F2F"/>
<stop offset="1" stop-color="#666666"/>
</linearGradient>
<linearGradient id="paint1_linear_2_21" x1="82.1691" y1="29.1315" x2="43.6127" y2="69.844" gradientUnits="userSpaceOnUse">
<stop/>
<stop offset="1" stop-color="#666666"/>
</linearGradient>
<linearGradient id="paint2_linear_2_21" x1="82.1691" y1="29.1315" x2="43.6127" y2="69.844" gradientUnits="userSpaceOnUse">
<stop/>
<stop offset="1" stop-color="#666666"/>
</linearGradient>
<linearGradient id="paint3_linear_2_21" x1="38.8213" y1="31.4123" x2="9.0472" y2="62.8514" gradientUnits="userSpaceOnUse">
<stop/>
<stop offset="1" stop-color="#666666"/>
</linearGradient>
<linearGradient id="paint4_linear_2_21" x1="38.8213" y1="31.4123" x2="9.0472" y2="62.8514" gradientUnits="userSpaceOnUse">
<stop/>
<stop offset="1" stop-color="#666666"/>
</linearGradient>
</defs>
</svg>
